<svg width="162" height="17" viewBox="0 0 162 17" fill="none" xmlns="http://www.w3.org/2000/svg">
<path fill-rule="evenodd" clip-rule="evenodd" d="M112.033 3.84041C111.425 4.11761 110.773 4.30417 110.088 4.38898C110.787 3.95807 111.324 3.27594 111.577 2.46342C110.922 2.86226 110.197 3.15191 109.426 3.308C108.808 2.63197 107.928 2.2106 106.953 2.2106C105.083 2.2106 103.566 3.76886 103.566 5.69017C103.566 5.96313 103.596 6.22867 103.654 6.48334C100.839 6.33759 98.3424 4.95159 96.672 2.84742C96.3805 3.36154 96.2135 3.95887 96.2135 4.59648C96.2135 5.80359 96.8115 6.86853 97.72 7.49303C97.1654 7.47448 96.6428 7.31812 96.1862 7.05709V7.10081C96.1862 8.7876 97.3548 10.1935 98.9026 10.5135C98.6188 10.593 98.3196 10.6354 98.0118 10.6354C97.7936 10.6354 97.581 10.6142 97.3746 10.5731C97.8054 11.9559 99.0566 12.9619 100.539 12.99C99.3793 13.9228 97.9187 14.4793 96.3311 14.4793C96.0577 14.4793 95.7886 14.4634 95.5237 14.4308C97.0225 15.4183 98.8033 15.9944 100.716 15.9944C106.946 15.9944 110.353 10.6916 110.353 6.09365C110.353 5.94259 110.35 5.79286 110.343 5.64313C111.005 5.15286 111.58 4.53937 112.034 3.84107" fill="#6188FF"/>
<path d="M5.65597 17V9.24548H8.22501L8.60969 6.2234H5.65597V4.294C5.65597 3.41904 5.89578 2.82278 7.13417 2.82278L8.71368 2.82208V0.119112C8.44051 0.0822826 7.5029 -1.65981e-08 6.41206 -1.65981e-08C4.13475 -1.65981e-08 2.57564 1.40836 2.57564 3.9947V6.2234H-2.3404e-08V9.24548H2.57564V17H5.65597Z" fill="#B6BAC7"/>
<path d="M162 4.10651H161.347C161.105 4.10651 160.762 4.45072 160.762 4.67109V12.6583C160.762 12.8789 161.105 13.1796 161.347 13.1796H162V15.0755H156.084V13.1796H157.322V4.78361H157.262L154.37 15.0755H152.131L149.277 4.78361H149.205V13.1796H150.443V15.0755H145.49V13.1796H146.124C146.385 13.1796 146.728 12.8789 146.728 12.6583V4.67109C146.728 4.45072 146.385 4.10651 146.124 4.10651H145.49V2.21064H151.684L153.717 9.65872H153.773L155.825 2.21064H162V4.10651Z" fill="#757E9A"/>
<path d="M51.8197 14.0232C51.3819 14.0232 51.4563 13.8651 51.3053 13.4664L50.0178 9.41344L59.9283 3.78983" fill="#9399AB"/>
<path d="M51.8198 14.0232C52.1577 14.0232 52.307 13.8754 52.4955 13.7L54.2974 12.0241L52.0498 10.7277" fill="#70788E"/>
<path d="M52.0495 10.7281L57.4957 14.5768C58.1172 14.9048 58.5657 14.735 58.7205 14.0249L60.9374 4.03246C61.1644 3.16206 60.5906 2.76729 59.996 3.02547L46.9784 7.82666C46.0898 8.16756 46.095 8.64173 46.8164 8.85301L50.157 9.85032L57.8909 5.18335C58.256 4.97158 58.5911 5.08543 58.3161 5.31891" fill="#B6BAC7"/>
</svg>
